<svg preserveAspectRatio="none" overflow="visible" width="406.429" height="59.2253" viewBox="0 0 406.429 59.2253" fill="none" xmlns="http://www.w3.org/2000/svg">
<g id="Vector">
<path d="M385.775 59.2253C382.154 59.2253 379.033 58.5533 376.413 57.2094C373.84 55.8191 371.791 53.8959 370.267 51.4398H373.544V58.3911H360.547V0H373.697V22.0357H373.983C375.222 20.0893 376.913 18.5832 379.057 17.5173C381.249 16.4051 383.869 15.849 386.919 15.849C391.064 15.849 394.59 16.7527 397.496 18.56C400.402 20.3674 402.618 22.9162 404.142 26.2065C405.667 29.4504 406.429 33.2273 406.429 37.5372C406.429 41.8006 405.643 45.5775 404.071 48.8678C402.499 52.1118 400.188 54.6606 397.139 56.5143C394.089 58.3216 390.302 59.2253 385.775 59.2253ZM383.274 48.1032C386.657 48.1032 389.158 47.1532 390.778 45.2531C392.446 43.3531 393.279 40.7811 393.279 37.5372C393.279 34.2932 392.446 31.7212 390.778 29.8212C389.158 27.9212 386.657 26.9711 383.274 26.9711C380.32 26.9711 377.985 27.7821 376.27 29.4041C374.555 30.9797 373.697 33.181 373.697 36.0079V39.0664C373.697 41.8933 374.555 44.1177 376.27 45.7397C377.985 47.3154 380.32 48.1032 383.274 48.1032Z" fill="#31F2FF"/>
<path d="M328.966 59.1554C323.821 59.1554 319.795 57.9736 316.888 55.6102C314.03 53.2004 312.6 50.0028 312.6 46.0173C312.6 41.8929 314.101 38.7185 317.103 36.494C320.152 34.2233 324.488 33.0879 330.11 33.0879H341.616V31.5586C341.616 27.7585 339.139 25.8585 334.183 25.8585C329.8 25.8585 327.132 27.2951 326.179 30.1683H313.172C314.172 25.4414 316.436 21.8731 319.961 19.4633C323.487 17.0535 328.204 15.8486 334.112 15.8486C340.639 15.8486 345.618 17.262 349.049 20.0889C352.479 22.8694 354.194 26.9475 354.194 32.3232V58.3907H341.697V51.4394H344.189C342.712 53.9419 340.759 55.8651 338.329 57.209C335.899 58.5066 332.778 59.1554 328.966 59.1554ZM330.967 49.5625C333.064 49.5625 334.898 49.215 336.47 48.5198C338.09 47.8247 339.353 46.8747 340.258 45.6698C341.164 44.4649 341.616 43.121 341.616 41.638V41.4295H330.682C327.013 41.4295 325.179 42.7502 325.179 45.3917C325.179 46.7357 325.679 47.7783 326.679 48.5198C327.728 49.215 329.157 49.5625 330.967 49.5625Z" fill="#31F2FF"/>
<path d="M240.22 58.3911V0H253.371V58.3911H240.22Z" fill="#31F2FF"/>
<path d="M212.296 59.2249C207.579 59.2249 203.481 58.3444 200.003 56.5834C196.525 54.776 193.833 52.2504 191.927 49.0064C190.069 45.7161 189.14 41.8466 189.14 37.3977C189.14 32.9489 190.045 29.1256 191.856 25.928C193.714 22.6841 196.335 20.2048 199.717 18.4901C203.148 16.7291 207.174 15.8486 211.795 15.8486C216.369 15.8486 220.3 16.7059 223.588 18.4206C226.875 20.0889 229.376 22.4987 231.092 25.65C232.855 28.8012 233.736 32.5781 233.736 36.9806V41.0819H201.79C202.314 43.7698 203.457 45.8088 205.22 47.1991C206.983 48.543 209.318 49.215 212.224 49.215C214.559 49.215 216.369 48.8674 217.656 48.1723C218.99 47.4308 219.943 46.2722 220.514 44.6966H233.665C232.759 49.2381 230.425 52.8065 226.661 55.4016C222.897 57.9505 218.108 59.2249 212.296 59.2249ZM202.004 32.7403H221.158C220.729 30.4232 219.728 28.7085 218.156 27.5963C216.631 26.4378 214.535 25.8585 211.867 25.8585C209.246 25.8585 207.102 26.4378 205.435 27.5963C203.767 28.7549 202.624 30.4695 202.004 32.7403Z" fill="#31F2FF"/>
<path d="M162.855 59.2249C158.138 59.2249 154.04 58.3444 150.562 56.5834C147.084 54.776 144.392 52.2504 142.486 49.0064C140.628 45.7161 139.699 41.8466 139.699 37.3977C139.699 32.9489 140.604 29.1256 142.415 25.928C144.273 22.6841 146.893 20.2048 150.276 18.4901C153.707 16.7291 157.733 15.8486 162.354 15.8486C166.928 15.8486 170.859 16.7059 174.146 18.4206C177.434 20.0889 179.935 22.4987 181.651 25.65C183.413 28.8012 184.295 32.5781 184.295 36.9806V41.0819H152.349C152.873 43.7698 154.016 45.8088 155.779 47.1991C157.542 48.543 159.877 49.215 162.783 49.215C165.118 49.215 166.928 48.8674 168.215 48.1723C169.549 47.4308 170.502 46.2722 171.073 44.6966H184.223C183.318 49.2381 180.983 52.8065 177.22 55.4016C173.456 57.9505 168.667 59.2249 162.855 59.2249ZM152.563 32.7403H171.717C171.288 30.4232 170.287 28.7085 168.715 27.5963C167.19 26.4378 165.094 25.8585 162.426 25.8585C159.805 25.8585 157.661 26.4378 155.994 27.5963C154.326 28.7549 153.182 30.4695 152.563 32.7403Z" fill="#31F2FF"/>
<path d="M88.9468 58.3911V0H102.097V22.3833H102.383C103.764 20.2515 105.575 18.6527 107.814 17.5869C110.101 16.4746 112.841 15.9185 116.033 15.9185C121.417 15.9185 125.681 17.5173 128.826 20.7149C131.97 23.9126 133.543 28.1992 133.543 33.5749V58.3911H120.393V36.0774C120.393 33.2042 119.606 31.0261 118.034 29.5431C116.51 28.0602 114.246 27.3187 111.245 27.3187C108.243 27.3187 105.956 28.0602 104.384 29.5431C102.859 31.0261 102.097 33.2042 102.097 36.0774V58.3911H88.9468Z" fill="#31F2FF"/>
<path d="M16.3661 58.3908L0 2.085H14.1506L23.6558 37.4673H24.0132L35.3766 2.085H46.8114L58.818 37.4673H59.1039L68.5377 2.085H82.7597L66.3936 58.3908H53.1721L41.2369 21.4097H40.9511L29.5877 58.3908H16.3661Z" fill="#31F2FF"/>
<path d="M263.114 58.2708V0.306336H276.946V46.5347H306.964V58.2708H263.114Z" fill="#31F2FF"/>
</g>
</svg>
