<svg preserveAspectRatio="none" overflow="visible" width="30.8398" height="32.0216" viewBox="0 0 30.8398 32.0216" fill="none" xmlns="http://www.w3.org/2000/svg">
<g id="Vector">
<path d="M24.5944 25.9218C28.674 23.7862 30.9699 19.4834 30.8341 15.076C30.8218 14.6387 30.22 14.5627 30.0935 14.9809C29.2109 17.896 27.2267 20.4593 24.3661 21.9548C23.7119 22.297 23.0391 22.5663 22.3602 22.7691C25.4338 21.2419 27.813 18.3301 28.5783 14.6356C29.5319 10.0381 27.7205 5.4976 24.2982 2.82972C23.9587 2.56356 23.5236 2.99448 23.7612 3.35886C25.4122 5.9 26.1034 9.09386 25.4369 12.3162C25.2857 13.0545 25.0635 13.7579 24.7919 14.4296C25.5696 11.0171 24.8629 7.28464 22.5485 4.3506C19.6662 0.697314 15.0898 -0.712672 10.9177 0.339272C10.5042 0.443833 10.5566 1.06169 10.9794 1.10288C13.9419 1.38488 16.7933 2.84239 18.8145 5.40572C19.5089 6.28656 20.0582 7.24345 20.4655 8.23836C18.3084 4.85756 14.5097 2.70932 10.2943 2.93428C5.72412 3.18142 1.9192 6.15348 0.299099 10.2345C0.138632 10.6401 0.657064 10.9601 0.937882 10.6306C2.90052 8.33658 5.72721 6.82204 8.93346 6.65094C9.66791 6.61292 10.3869 6.64777 11.0874 6.74599C7.67441 6.85689 4.34781 8.52353 2.18459 11.578C-0.506322 15.3802 -0.65136 20.285 1.41928 24.1506C1.62604 24.534 2.19385 24.3217 2.12287 23.8908C1.61987 20.8807 2.25556 17.6742 4.14105 15.0063C4.57308 14.3979 5.05139 13.8434 5.56674 13.346C3.50227 16.1374 2.67216 19.8446 3.62262 23.4916C4.80761 28.032 8.43046 31.2354 12.6551 32.0148C13.0747 32.0909 13.2722 31.5047 12.8988 31.2924C10.3036 29.7969 8.27616 27.2747 7.44606 24.0904C7.25473 23.3616 7.14055 22.6329 7.08809 21.9073C7.90277 25.3103 10.1833 28.3077 13.5438 29.8412C17.7283 31.755 22.4281 30.8773 25.6807 27.9972C26.0047 27.712 25.6807 27.1829 25.2888 27.3476C22.5238 28.4788 19.3391 28.5073 16.4044 27.167C15.7348 26.8597 15.1084 26.4921 14.5251 26.0802C17.6141 27.5726 21.3172 27.6391 24.5944 25.9218ZM15.2503 21.7901C12.1891 21.7901 9.70802 19.2426 9.70802 16.0994C9.70802 12.9563 12.1891 10.4088 15.2503 10.4088C18.3115 10.4088 20.7926 12.9563 20.7926 16.0994C20.7926 19.2426 18.3115 21.7901 15.2503 21.7901Z" fill="white"/>
</g>
</svg>
